HIERARCHY
ROOT hip
{
	OFFSET 0.000000 0.000000 0.000000 
	CHANNELS 6 Xposition Yposition Zposition Xrotation Zrotation Yrotation
	JOINT abdomen
	{
		OFFSET 0.000000 3.402643 0.000000 
		CHANNELS 3 Xrotation Zrotation Yrotation
		JOINT chest
		{
			OFFSET 0.000000 8.438565 -0.680529 
			CHANNELS 3 Xrotation Zrotation Yrotation
			JOINT neck
			{
				OFFSET 0.000000 10.207942 -0.272212 
				CHANNELS 3 Xrotation Zrotation Yrotation
				JOINT head
				{
					OFFSET 0.000000 3.130431 0.000000 
					CHANNELS 3 Xrotation Zrotation Yrotation
					End Site
					{
						OFFSET 0.000000 3.130435 0.000000 
					}
				}
			}
			JOINT lCollar
			{
				OFFSET 3.470700 6.669187 -0.816635 
				CHANNELS 3 Yrotation Zrotation Xrotation
				JOINT lShldr
				{
					OFFSET 3.198488 0.000000 0.000000 
					CHANNELS 3 Zrotation Yrotation Xrotation
					JOINT lForeArm
					{
						OFFSET 10.139888 0.000000 0.000000 
						CHANNELS 3 Yrotation Zrotation Xrotation
						JOINT lHand
						{
							OFFSET 8.370511 0.000000 0.000000 
							CHANNELS 3 Zrotation Yrotation Xrotation
							End Site
							{
								OFFSET 4.083176 0.000000 0.000000 
							}
						}
					}
				}
			}
			JOINT rCollar
			{
				OFFSET -3.470700 6.669187 -0.816635 
				CHANNELS 3 Yrotation Zrotation Xrotation
				JOINT rShldr
				{
					OFFSET -3.198488 0.000000 0.000000 
					CHANNELS 3 Zrotation Yrotation Xrotation
					JOINT rForeArm
					{
						OFFSET -10.139888 0.000000 0.000000 
						CHANNELS 3 Yrotation Zrotation Xrotation
						JOINT rHand
						{
							OFFSET -8.370511 0.000000 0.000000 
							CHANNELS 3 Zrotation Yrotation Xrotation
							End Site
							{
								OFFSET -4.083176 0.000000 0.000000 
							}
						}
					}
				}
			}
		}
	}
	JOINT lThigh
	{
		OFFSET 5.308129 -1.633274 1.361059 
		CHANNELS 3 Xrotation Zrotation Yrotation
		JOINT lShin
		{
			OFFSET -2.041588 -20.007561 0.000000 
			CHANNELS 3 Xrotation Zrotation Yrotation
			JOINT lFoot
			{
				OFFSET 0.000000 -19.190928 -1.224953 
				CHANNELS 3 Xrotation Yrotation Zrotation
				End Site
				{
					OFFSET 0.000000 -2.449906 4.627600 
				}
			}
		}
	}
	JOINT rThigh
	{
		OFFSET -5.308129 -1.633274 1.361059 
		CHANNELS 3 Xrotation Zrotation Yrotation
		JOINT rShin
		{
			OFFSET 2.041588 -20.007561 0.000000 
			CHANNELS 3 Xrotation Zrotation Yrotation
			JOINT rFoot
			{
				OFFSET 0.000000 -19.190928 -1.224953 
				CHANNELS 3 Xrotation Yrotation Zrotation
				End Site
				{
					OFFSET 0.000000 -2.449906 4.627600 
				}
			}
		}
	}
}
MOTION
Frames: 17
Frame Time: 0.033333
-0.401741 47.850769 -0.652406 -0.009766 0.205078 -0.166051 0.000000 0.000000 0.000000 -2.324240 -0.243940 0.039198 5.527379 -0.144519 0.017752 5.976559 -0.087798 0.052856 0.108019 9.421559 -1.581026 -3.505751 1.881157 -17.694569 1.576924 -6.434077 21.971657 2.473014 -1.918954 -3.527295 0.309923 -9.824037 -1.560381 3.330549 -7.147525 -13.240591 -0.503981 6.424186 19.550320 -2.652686 5.909657 -3.578424 -2.031358 9.216311 5.713789 22.218166 -2.619401 1.279974 -18.830770 1.185964 -7.133576 -2.939231 -11.421380 -7.903351 22.139666 2.282344 -10.393343 -15.459022 -1.560415 11.471180 
-0.392301 47.863102 -0.723066 -0.039063 0.380859 0.077865 0.000000 0.000000 0.000000 -2.412169 -0.400036 0.007085 5.820277 -0.229759 -0.067226 5.732421 -0.009753 0.020020 -0.591758 9.266779 -1.610557 -3.301926 2.462621 -17.073696 1.514082 -6.598758 21.533148 2.488885 -1.859265 -3.528109 0.318458 -9.931951 -1.627123 3.356680 -7.295357 -13.017240 -0.485610 6.403897 19.703896 -2.794038 5.656286 -3.596297 -2.089249 9.029650 5.597203 22.057470 -2.617691 1.193377 -18.616703 1.135382 -7.070498 -2.909849 -11.636037 -8.100648 22.202734 2.362049 -10.453375 -15.464299 -1.566050 11.435337 
-0.399098 47.843594 -0.773693 -0.185551 0.390623 0.115923 0.000000 0.000000 0.000000 -2.334050 -0.429331 0.037030 5.888687 -0.246074 -0.011375 5.898437 0.029264 0.066977 -0.374653 9.269261 -1.554987 -3.394161 2.167017 -17.388477 1.505286 -6.512124 21.508518 2.457222 -1.822088 -3.526397 0.151847 -10.210136 -1.579663 3.683633 -7.117168 -13.248658 -0.466917 6.335916 19.690187 -2.683340 5.614224 -3.579338 -2.119230 9.060352 5.616636 22.321016 -2.639750 0.919720 -18.719984 1.151994 -7.006927 -2.958268 -11.682257 -8.110636 22.489428 2.392537 -10.313318 -15.569725 -1.573008 11.390210 
-0.397965 47.834785 -0.830965 -0.263677 0.341793 0.086318 0.000000 0.000000 0.000000 -2.285212 -0.400072 0.103855 6.064647 -0.212177 -0.033536 5.566402 -0.097519 0.054002 -0.651437 9.285284 -1.480081 -3.193344 2.541651 -16.990200 1.494418 -6.614806 21.580601 2.541796 -2.081026 -3.531075 -0.092365 -10.281962 -1.557242 3.932982 -6.860523 -13.552441 -0.471128 6.237512 20.147339 -2.587964 5.502712 -3.574232 -2.167650 9.196923 5.761963 22.503223 -2.734624 0.793537 -18.753967 1.152925 -6.939906 -2.987908 -11.664515 -8.099081 22.573812 2.391333 -10.200779 -15.561393 -1.567160 11.371226 
-0.381352 47.830376 -0.887166 -0.410161 0.283196 0.037035 0.000000 0.000000 0.000000 -2.168027 -0.419621 0.172135 5.987055 -0.037920 0.041253 5.996078 -0.195110 0.145604 -0.203580 9.603939 -1.404282 -3.648747 2.029039 -17.459114 1.439749 -6.426511 22.044537 2.633851 -1.987254 -3.536408 0.085253 -9.993581 -1.431689 3.744412 -7.086917 -13.368639 -0.489564 6.299572 20.102291 -2.568287 5.817031 -3.572893 -2.157233 9.249259 5.774275 22.656942 -2.708688 0.875827 -18.771376 1.161708 -6.979572 -2.948254 -11.680744 -8.160125 22.628675 2.458447 -10.018964 -15.531588 -1.560951 11.285663 
-0.367761 47.824337 -0.950477 -0.439461 0.351552 0.036366 0.000000 0.000000 0.000000 -2.177804 -0.458653 0.183457 6.045629 -0.119880 0.022050 5.859367 -0.136562 0.104202 -0.608614 9.252687 -1.378744 -3.152848 2.561956 -16.900454 1.355400 -6.622502 21.271542 2.653351 -1.986042 -3.537545 0.179907 -10.113341 -1.434950 3.967267 -7.194807 -13.185568 -0.510668 6.318418 20.417263 -2.896795 5.884738 -3.602357 -2.235481 9.183701 5.701331 22.740776 -2.699842 0.716677 -18.765236 1.152914 -6.917842 -3.085301 -11.790745 -8.189450 22.810616 2.489827 -9.972942 -15.542724 -1.561087 11.275024 
-0.354924 47.838810 -1.033786 -0.488293 0.400376 -0.071771 0.000000 0.000000 0.000000 -2.128984 -0.487944 0.262279 6.055692 -0.189836 0.129515 5.878904 -0.078037 0.091604 -0.155459 9.425877 -1.361715 -3.579315 2.107985 -17.378065 1.381094 -6.413409 22.076738 2.680175 -1.945238 -3.539245 0.323831 -10.224616 -1.381444 4.106901 -7.203252 -13.319566 -0.486643 6.327092 19.682205 -2.650327 5.557561 -3.577639 -2.245010 9.056520 5.616446 22.642506 -2.646965 0.839585 -18.626722 1.129341 -6.918417 -3.144247 -11.821956 -8.099983 22.747961 2.400452 -9.895726 -15.419806 -1.524359 11.269938 
-0.361092 47.819305 -1.090503 -0.683610 0.390597 -0.346457 0.000000 0.000000 0.000000 -1.982488 -0.468469 0.377543 6.065552 -0.279998 0.233867 5.957027 -0.097552 0.072869 -0.323090 9.261624 -1.211330 -3.292440 2.560303 -17.073923 1.447923 -6.505837 21.883032 2.634457 -1.997000 -3.536409 0.536532 -10.092426 -1.249036 3.950390 -7.174277 -13.350428 -0.486143 6.340051 19.633759 -2.529861 5.516088 -3.570818 -2.157380 9.094707 5.688160 22.871382 -2.679348 0.993972 -18.713144 1.150955 -6.962696 -3.251205 -11.837707 -8.017706 23.029604 2.351398 -9.672884 -15.444412 -1.534930 11.242587 
-0.332902 47.803699 -1.159667 -0.654316 0.439424 -0.376112 0.000000 0.000000 0.000000 -1.972731 -0.497752 0.398003 6.045993 -0.314113 0.277492 5.957016 -0.195104 0.126206 -0.385699 9.194522 -1.201248 -3.212274 2.717884 -16.924145 1.512103 -6.631604 21.181681 2.664871 -2.171232 -3.547671 0.460558 -10.051623 -1.243709 3.920132 -7.057325 -13.328638 -0.487926 6.340376 19.926645 -2.616055 5.637958 -3.575358 -2.372956 8.972684 5.572058 23.089909 -2.621420 1.146695 -18.760719 1.145378 -6.977840 -3.514505 -11.974728 -8.072173 23.288851 2.391909 -9.610510 -15.455179 -1.532415 11.233167 
-0.326484 47.796524 -1.253997 -0.703139 0.361301 -0.463418 0.000000 0.000000 0.000000 -1.875063 -0.468499 0.396196 6.046548 -0.191997 0.284213 5.937435 -0.399957 0.194405 -0.387641 9.330280 -1.110847 -3.316822 2.904713 -16.716227 1.705215 -6.783327 20.868582 3.867078 -3.221113 -3.616065 0.529131 -9.886037 -1.148147 3.869978 -7.038345 -13.267425 -0.508708 6.363069 20.184237 -2.767082 6.010202 -3.595435 -2.548745 8.972259 5.432470 23.304331 -2.474840 1.228731 -18.776369 1.166951 -7.054665 -3.622396 -11.880261 -7.926880 23.340605 2.311768 -9.475884 -15.412368 -1.509067 11.233723 
-0.339826 47.793636 -1.292280 -0.849619 0.273407 -0.795070 0.000000 0.000000 0.000000 -1.796917 -0.390433 0.578655 6.144714 -0.182396 0.469618 5.869008 -0.565761 0.251630 -0.344288 9.385639 -1.021263 -3.423961 3.080595 -16.664455 1.588695 -6.706523 20.959261 3.732039 -2.945879 -3.608846 0.694697 -9.958200 -1.069340 4.026720 -7.047675 -13.255967 -0.498605 6.340683 20.075184 -2.737735 5.855468 -3.593302 -2.420339 9.044276 5.525322 23.393091 -2.455517 1.450752 -18.801510 1.186344 -7.132789 -3.680909 -11.694415 -7.711215 23.394621 2.157109 -9.492860 -15.310446 -1.526891 11.276732 
-0.338064 47.797157 -1.328825 -0.976577 0.312455 -0.991654 0.000000 0.000000 0.000000 -1.709022 -0.380690 0.675421 6.202498 -0.302837 0.588366 5.781175 -0.419413 0.186692 -0.291978 9.304985 -0.940526 -3.485637 3.157293 -16.834028 1.501710 -6.588341 20.944033 3.802948 -3.137102 -3.612726 0.662955 -10.094034 -1.003248 4.166708 -6.870125 -13.457114 -0.478067 6.315427 19.856590 -2.362904 5.516603 -3.560186 -2.284885 8.795874 5.210227 23.311157 -2.191403 1.787579 -18.751205 1.207197 -7.309307 -3.671736 -11.716874 -7.613990 23.432451 2.069020 -9.263793 -15.295780 -1.525020 11.233210 
-0.311636 47.794518 -1.378859 -0.986339 0.263633 -0.961570 0.000000 0.000000 0.000000 -1.660179 -0.302607 0.653302 6.133477 -0.298809 0.586845 5.937450 -0.351182 0.133540 -0.271706 9.255473 -0.898989 -3.410586 2.989840 -17.053875 1.357902 -6.436506 21.274315 2.583828 -2.127341 -3.533355 0.773652 -9.841353 -0.954621 3.861232 -7.096656 -13.316127 -0.505273 6.387229 19.666418 -2.400145 5.641504 -3.562829 -2.391980 8.833776 5.230712 23.447912 -2.201211 1.787296 -18.783051 1.216879 -7.282089 -3.699893 -11.750672 -7.702538 23.422741 2.156826 -9.208554 -15.220252 -1.521029 11.200345 
-0.274763 47.792126 -1.449608 -0.791029 0.332000 -0.883490 0.000000 0.000000 0.000000 -1.757839 -0.312353 0.624820 6.055741 -0.248658 0.488838 5.849456 -0.604769 0.146277 -0.509290 9.436841 -0.976213 -3.671923 3.244503 -16.854538 1.356984 -6.472186 21.177050 2.633797 -2.143808 -3.545965 0.801098 -9.764846 -1.032089 3.693888 -7.273446 -13.240412 -0.497216 6.337162 19.829939 -2.087569 5.670504 -3.534748 -2.752566 8.744152 5.164725 23.546041 -2.240215 1.871361 -18.726776 1.193782 -7.227724 -4.002702 -11.926441 -7.776253 23.527134 2.263329 -9.103540 -15.214171 -1.499866 11.145831 
-0.265326 47.795643 -1.502336 -0.712913 0.458949 -0.777195 0.000000 0.000000 0.000000 -1.767619 -0.390439 0.578455 6.036582 -0.270452 0.382206 5.771260 -0.721774 0.143126 -0.583715 9.448540 -0.981596 -3.858226 3.282781 -16.883909 1.472354 -6.536481 20.830961 3.284911 -2.846812 -3.583176 0.708715 -9.928857 -1.048633 3.793624 -7.331200 -13.323908 -0.497604 6.291559 19.779835 -1.918619 5.798256 -3.525365 -2.908202 8.586424 5.038939 23.476660 -2.220570 1.811077 -18.601620 1.198532 -7.200889 -4.119840 -12.063050 -7.746635 23.557074 2.214758 -9.003960 -15.221437 -1.500407 11.167667 
-0.253245 47.805084 -1.524963 -0.722689 0.546831 -0.778382 0.000000 0.000000 0.000000 -1.748101 -0.449010 0.511750 6.056191 -0.271882 0.390074 5.712781 -0.497413 0.152069 -0.637832 9.322930 -0.965195 -3.725137 3.369522 -17.092331 1.390475 -6.308418 21.594294 1.931827 -2.030599 -3.504990 0.754698 -9.889777 -1.021198 3.673442 -7.322713 -13.181144 -0.485716 6.343887 19.575289 -2.277861 5.570759 -3.546215 -2.900342 8.435925 4.895421 23.348736 -2.181426 1.982193 -18.492554 1.192577 -7.213950 -4.149619 -12.173055 -7.788481 23.540777 2.215625 -9.092722 -15.137501 -1.495748 11.200875 
-0.243680 47.815777 -1.551403 -0.810588 0.576114 -0.877291 0.000000 0.000000 0.000000 -1.630909 -0.449037 0.549894 6.076232 -0.229599 0.406098 5.654167 -0.536398 0.174119 -0.637365 9.291803 -0.854921 -3.764657 3.388772 -17.114016 1.437775 -6.348469 21.298265 2.125501 -2.155670 -3.516272 0.752869 -9.878480 -0.910414 3.655751 -7.263368 -13.306696 -0.495691 6.325793 19.556263 -2.410538 5.650648 -3.563398 -2.782066 8.345115 4.882187 23.266552 -2.162480 2.107372 -18.432209 1.176484 -7.222265 -4.091044 -12.242403 -7.832438 23.481054 2.230869 -8.859491 -15.087395 -1.486756 11.116615 
